kopru_tumbacak
version=1
nRows=12
nColumns=53
inDegrees=yes
endheader
time	sacrum_pitch	sacrum_roll	sacrum_yaw	sacrum_x	sacrum_y	sacrum_z	sacroiliac_flx	hip_flx	hip_add	hip_int	knee_flx	ankle_flx	ankle_add	ankle_int	BFa.activation	BFp.activation	CF.activation	STp.activation	STa.activation	SM.activation	QF.activation	TFL.activation	GMa.activation	GMe.activation	GMi.activation	Pir.activation	GP.activation	GA.activation	AL.activation	AM.activation	AB.activation	Pec.activation	IP.activation	OE.activation	OI.activation	GS.activation	GI.activation	RF.activation	VL.activation	VI.activation	VM.activation	MG.activation	LG.activation	Pla.activation	Sol.activation	TA.activation	EDL.activation	TP.activation	FDL.activation	FHL.activation	Per.activation	Pop.activation
0.000150	20.633716	0.000000	0.000000	0.000000	0.050000	0.000000	3.700000	37.200327	-10.000000	0.000000	-123.701329	13.976773	-5.000000	0.000000	0.000000	0.000000	0.000000	0.000000	0.000000	0.000000	0.000000	0.000000	0.000000	0.000000	0.000000	0.000000	0.000000	0.000000	0.000000	0.000000	0.000000	0.000000	0.000000	0.000000	0.000000	0.000000	0.000000	0.000000	0.000000	0.000000	0.000000	0.000000	0.000000	0.000000	0.000000	0.000000	0.000000	0.000000	0.000000	0.000000	0.000000	0.000000
0.005100	20.633716	0.000000	0.000000	0.000000	0.050000	0.000000	3.700000	37.002736	-10.000000	0.000000	-124.491140	12.325260	-5.000000	0.000000	0.000000	0.000000	0.000000	0.000000	0.000000	0.000000	0.000000	0.000000	0.000000	0.000000	0.000000	0.000000	0.000000	0.000000	0.000000	0.000000	0.000000	0.000000	0.000000	0.000000	0.000000	0.000000	0.000000	0.000000	0.000000	0.000000	0.000000	0.000000	0.000000	0.000000	0.000000	0.000000	0.000000	0.000000	0.000000	0.000000	0.000000	0.000000
0.010050	20.633716	0.000000	0.000000	0.000000	0.050000	0.000000	3.700000	36.725182	-10.000000	0.000000	-124.619957	11.678052	-5.000000	0.000000	0.000000	0.000000	0.000000	0.000000	0.000000	0.000000	0.000000	0.000000	0.000000	0.000000	0.000000	0.000000	0.000000	0.000000	0.000000	0.000000	0.000000	0.000000	0.000000	0.000000	0.000000	0.000000	0.000000	0.000000	0.000000	0.000000	0.000000	0.000000	0.000000	0.000000	0.000000	0.000000	0.000000	0.000000	0.000000	0.000000	0.000000	0.000000
0.015000	20.633716	0.000000	0.000000	0.000000	0.050000	0.000000	3.700000	36.494850	-10.000000	0.000000	-124.870633	11.360237	-5.000000	0.000000	0.000000	0.000000	0.314838	0.000000	0.000000	0.313893	0.313893	0.314838	0.314838	0.314838	0.000000	0.000000	0.000000	0.000000	0.313893	0.313893	0.313893	0.000000	0.314838	0.000000	0.000000	0.313893	0.313893	0.314838	0.313893	0.313893	0.313893	0.000000	0.000000	0.000000	0.000000	0.194161	0.313893	0.000000	0.000000	0.000000	0.313893	0.000000
0.019950	20.633716	0.000000	0.000000	0.000000	0.050000	0.000000	3.700000	36.173022	-10.000000	0.000000	-124.941426	11.365103	-5.000000	0.000000	0.000000	0.000000	0.285120	0.000000	0.000000	0.284264	0.284264	0.285120	0.285120	0.285120	0.000000	0.000000	0.000000	0.000000	0.284264	0.284264	0.284264	0.000000	0.285120	0.000000	0.000000	0.284264	0.284264	0.285120	0.284264	0.284264	0.284264	0.000000	0.000000	0.000000	0.000000	0.175834	0.284264	0.000000	0.000000	0.000000	0.284264	0.000000
0.024900	20.633716	0.000000	0.000000	0.000000	0.050000	0.000000	3.700000	35.901315	-10.000000	0.000000	-124.887364	11.391667	-5.000000	0.000000	0.000000	0.000000	0.565567	0.326396	0.000000	0.564792	0.564792	0.566492	0.566492	0.566492	0.000000	0.000000	0.000000	0.000000	0.564792	0.564792	0.564792	0.000000	0.566492	0.000000	0.000000	0.564792	0.564792	0.566492	0.564792	0.564792	0.564792	0.281098	0.281098	0.313893	0.670610	0.349356	0.564792	0.312952	0.312952	0.312952	0.564792	0.000000
0.029850	20.633716	0.000000	0.000000	0.000000	0.050000	0.000000	3.700000	35.602180	-10.000000	0.000000	-124.746105	10.957221	-5.000000	0.000000	0.000000	0.000000	0.512182	0.295587	0.307360	0.511480	0.511480	0.513020	0.513020	0.513020	0.000000	0.000000	0.000000	0.000000	0.511480	0.511480	0.511480	0.000000	0.513020	0.000000	0.000000	0.511480	0.511480	0.513020	0.511480	0.511480	0.511480	0.254565	0.254565	0.284264	0.607310	0.316380	0.511480	0.283411	0.283411	0.283411	0.511480	0.000000
0.034800	20.633716	0.000000	0.000000	0.000000	0.050000	0.000000	3.700000	35.311705	-10.000000	0.000000	-124.623839	10.735923	-5.000000	0.000000	0.000000	0.000000	0.766614	0.267686	0.278348	0.765978	0.765978	0.767372	0.767372	0.767372	0.000000	0.000000	0.000000	0.000000	0.765978	0.765978	0.765978	0.000000	0.767372	0.000000	0.000000	0.765978	0.765978	0.767372	0.765978	0.765978	0.765978	0.230536	0.230536	0.257432	0.549985	0.473801	0.765978	0.256660	0.256660	0.256660	0.765978	0.000000
0.039750	20.633716	0.000000	0.000000	0.000000	0.050000	0.000000	3.700000	35.031133	-10.000000	0.000000	-124.409262	10.483873	-5.000000	0.000000	0.000000	0.000000	1.000000	0.242418	0.252074	1.000000	1.000000	1.000000	1.000000	1.000000	0.000000	0.000000	0.000000	0.000000	1.000000	1.000000	1.000000	0.000000	1.000000	0.000000	0.000000	1.000000	1.000000	1.000000	1.000000	1.000000	1.000000	0.208775	0.208775	0.233132	0.498071	0.632800	1.000000	0.232433	0.232433	0.232433	1.000000	0.000000
0.044700	20.633716	0.000000	0.000000	0.000000	0.050000	0.000000	3.700000	34.749570	-10.000000	0.000000	-124.127484	10.321880	-5.000000	0.000000	0.000000	0.000000	0.927880	0.219536	0.228280	0.926462	0.926462	0.929403	0.929403	0.929403	0.000000	0.000000	0.000000	0.000000	0.926462	0.926462	0.926462	0.000000	0.929403	0.000000	0.000000	0.926462	0.926462	0.929403	0.926462	0.926462	0.926462	0.189069	0.189069	0.211127	0.451057	0.573069	0.926462	0.210493	0.210493	0.210493	0.926462	0.000000
0.049650	20.633716	0.000000	0.000000	0.000000	0.050000	0.000000	3.700000	34.478978	-10.000000	0.000000	-123.765821	10.182209	-5.000000	0.000000	0.000000	0.000000	1.000000	0.198814	0.206733	1.000000	1.000000	1.000000	1.000000	1.000000	0.000000	0.000000	0.000000	0.000000	1.000000	1.000000	1.000000	0.000000	1.000000	0.000000	0.000000	1.000000	1.000000	1.000000	1.000000	1.000000	1.000000	0.171222	0.171222	0.191198	0.408481	0.719661	1.000000	0.190624	0.190624	0.190624	1.000000	0.000000
0.054600	20.633716	0.000000	0.000000	0.000000	0.050000	0.000000	3.700000	34.208565	-10.000000	0.000000	-123.280043	10.018710	-5.000000	0.000000	0.000000	0.000000	1.000000	0.180047	0.187219	1.000000	1.000000	1.000000	1.000000	1.000000	0.000000	0.000000	0.000000	0.000000	1.000000	1.000000	1.000000	0.000000	1.000000	0.000000	0.000000	1.000000	1.000000	1.000000	1.000000	1.000000	1.000000	0.155060	0.155060	0.173150	0.369923	0.651731	1.000000	0.172631	0.172631	0.172631	1.000000	0.000000
